<svg xmlns="http://www.w3.org/2000/svg" xmlns:xlink="http://www.w3.org/1999/xlink" width="250" zoomAndPan="magnify" viewBox="0 0 187.5 74.999997" height="100" preserveAspectRatio="xMidYMid meet" version="1.0"><defs><g/><clipPath id="9be2de8b4e"><path d="M 58.0625 51.65625 L 184.550781 51.65625 L 184.550781 71.832031 L 58.0625 71.832031 Z M 58.0625 51.65625 " clip-rule="nonzero"/></clipPath><clipPath id="e34ed2e46e"><path d="M 2 5 L 55 5 L 55 53 L 2 53 Z M 2 5 " clip-rule="nonzero"/></clipPath><clipPath id="59cebb8445"><path d="M 36.804688 -6.195312 L 54.402344 16.488281 L 8.414062 52.160156 L -9.179688 29.472656 Z M 36.804688 -6.195312 " clip-rule="nonzero"/></clipPath><clipPath id="ac12087543"><path d="M 36.804688 -6.195312 L 54.402344 16.488281 L 8.414062 52.160156 L -9.179688 29.472656 Z M 36.804688 -6.195312 " clip-rule="nonzero"/></clipPath><clipPath id="3fb25c597c"><path d="M 36.804688 -6.195312 L 72.476562 39.789062 L 26.488281 75.460938 L -9.179688 29.472656 Z M 36.804688 -6.195312 " clip-rule="nonzero"/></clipPath></defs><g clip-path="url(#9be2de8b4e)"><path fill="#ffffff" d="M 184.753906 61.628906 C 184.753906 63.03125 181.570312 63.53125 177.785156 63.539062 L 170.503906 71.597656 L 168.546875 71.597656 L 173.046875 63.328125 C 170.503906 63.109375 168.160156 62.746094 166.753906 62.351562 L 163.746094 65.910156 L 162.046875 65.910156 L 163.988281 61.628906 L 162.046875 57.34375 L 163.746094 57.34375 L 166.753906 60.90625 C 168.160156 60.511719 170.503906 60.144531 173.046875 59.925781 L 168.546875 51.660156 L 170.503906 51.660156 L 177.785156 59.714844 C 181.570312 59.722656 184.753906 60.226562 184.753906 61.628906 Z M 160.519531 61 C 160.867188 61 161.148438 61.28125 161.148438 61.628906 C 161.148438 61.972656 160.863281 62.257812 160.519531 62.257812 L 159.261719 62.257812 C 158.914062 62.257812 158.632812 61.972656 158.632812 61.628906 C 158.632812 61.28125 158.914062 61 159.261719 61 Z M 58.695312 62.257812 C 58.347656 62.257812 58.066406 61.976562 58.066406 61.628906 C 58.066406 61.28125 58.347656 61 58.695312 61 L 59.953125 61 C 60.296875 61 60.578125 61.28125 60.578125 61.628906 C 60.578125 61.976562 60.296875 62.257812 59.953125 62.257812 Z M 63.722656 62.257812 C 63.375 62.257812 63.09375 61.976562 63.09375 61.628906 C 63.09375 61.28125 63.375 61 63.722656 61 L 64.980469 61 C 65.328125 61 65.609375 61.28125 65.609375 61.628906 C 65.609375 61.976562 65.328125 62.257812 64.980469 62.257812 Z M 68.75 62.257812 C 68.402344 62.257812 68.121094 61.976562 68.121094 61.628906 C 68.121094 61.28125 68.40625 61 68.75 61 L 70.007812 61 C 70.355469 61 70.636719 61.28125 70.636719 61.628906 C 70.636719 61.976562 70.355469 62.257812 70.007812 62.257812 Z M 73.78125 62.257812 C 73.433594 62.257812 73.152344 61.976562 73.152344 61.628906 C 73.152344 61.28125 73.433594 61 73.78125 61 L 75.035156 61 C 75.382812 61 75.664062 61.28125 75.664062 61.628906 C 75.664062 61.976562 75.382812 62.257812 75.035156 62.257812 Z M 78.808594 62.257812 C 78.460938 62.257812 78.179688 61.976562 78.179688 61.628906 C 78.179688 61.28125 78.460938 61 78.808594 61 L 80.0625 61 C 80.414062 61 80.695312 61.28125 80.695312 61.628906 C 80.695312 61.976562 80.414062 62.257812 80.0625 62.257812 Z M 83.835938 62.257812 C 83.488281 62.257812 83.207031 61.976562 83.207031 61.628906 C 83.207031 61.28125 83.488281 61 83.835938 61 L 85.09375 61 C 85.441406 61 85.722656 61.28125 85.722656 61.628906 C 85.722656 61.976562 85.441406 62.257812 85.09375 62.257812 Z M 88.863281 62.257812 C 88.515625 62.257812 88.234375 61.976562 88.234375 61.628906 C 88.234375 61.28125 88.515625 61 88.863281 61 L 90.121094 61 C 90.46875 61 90.75 61.28125 90.75 61.628906 C 90.75 61.976562 90.46875 62.257812 90.121094 62.257812 Z M 93.894531 62.257812 C 93.542969 62.257812 93.265625 61.976562 93.265625 61.628906 C 93.265625 61.28125 93.546875 61 93.894531 61 L 95.148438 61 C 95.496094 61 95.777344 61.28125 95.777344 61.628906 C 95.777344 61.976562 95.496094 62.257812 95.148438 62.257812 Z M 98.921875 62.257812 C 98.574219 62.257812 98.292969 61.976562 98.292969 61.628906 C 98.292969 61.28125 98.574219 61 98.921875 61 L 100.179688 61 C 100.523438 61 100.804688 61.28125 100.804688 61.628906 C 100.804688 61.976562 100.523438 62.257812 100.179688 62.257812 Z M 103.949219 62.257812 C 103.601562 62.257812 103.320312 61.976562 103.320312 61.628906 C 103.320312 61.28125 103.601562 61 103.949219 61 L 105.207031 61 C 105.554688 61 105.835938 61.28125 105.835938 61.628906 C 105.835938 61.976562 105.554688 62.257812 105.207031 62.257812 Z M 108.976562 62.257812 C 108.628906 62.257812 108.347656 61.976562 108.347656 61.628906 C 108.347656 61.28125 108.628906 61 108.976562 61 L 110.234375 61 C 110.582031 61 110.863281 61.28125 110.863281 61.628906 C 110.863281 61.976562 110.582031 62.257812 110.234375 62.257812 Z M 114.003906 62.257812 C 113.660156 62.257812 113.378906 61.976562 113.378906 61.628906 C 113.378906 61.28125 113.660156 61 114.003906 61 L 115.261719 61 C 115.609375 61 115.890625 61.28125 115.890625 61.628906 C 115.890625 61.976562 115.609375 62.257812 115.261719 62.257812 Z M 119.035156 62.257812 C 118.6875 62.257812 118.40625 61.976562 118.40625 61.628906 C 118.40625 61.28125 118.6875 61 119.035156 61 L 120.289062 61 C 120.640625 61 120.921875 61.28125 120.921875 61.628906 C 120.921875 61.976562 120.640625 62.257812 120.289062 62.257812 Z M 124.0625 62.257812 C 123.714844 62.257812 123.433594 61.976562 123.433594 61.628906 C 123.433594 61.28125 123.714844 61 124.0625 61 L 125.320312 61 C 125.667969 61 125.949219 61.28125 125.949219 61.628906 C 125.949219 61.976562 125.667969 62.257812 125.320312 62.257812 Z M 129.089844 62.257812 C 128.746094 62.257812 128.464844 61.976562 128.464844 61.628906 C 128.464844 61.28125 128.746094 61 129.089844 61 L 130.347656 61 C 130.695312 61 130.976562 61.28125 130.976562 61.628906 C 130.976562 61.976562 130.695312 62.257812 130.347656 62.257812 Z M 134.121094 62.257812 C 133.769531 62.257812 133.492188 61.976562 133.492188 61.628906 C 133.492188 61.28125 133.773438 61 134.121094 61 L 135.375 61 C 135.722656 61 136.003906 61.28125 136.003906 61.628906 C 136.003906 61.976562 135.722656 62.257812 135.375 62.257812 Z M 139.148438 62.257812 C 138.800781 62.257812 138.519531 61.976562 138.519531 61.628906 C 138.519531 61.28125 138.800781 61 139.148438 61 L 140.40625 61 C 140.75 61 141.03125 61.28125 141.03125 61.628906 C 141.03125 61.976562 140.75 62.257812 140.40625 62.257812 Z M 144.175781 62.257812 C 143.828125 62.257812 143.546875 61.976562 143.546875 61.628906 C 143.546875 61.28125 143.828125 61 144.175781 61 L 145.433594 61 C 145.78125 61 146.0625 61.28125 146.0625 61.628906 C 146.0625 61.976562 145.78125 62.257812 145.433594 62.257812 Z M 149.203125 62.257812 C 148.855469 62.257812 148.574219 61.976562 148.574219 61.628906 C 148.574219 61.28125 148.855469 61 149.203125 61 L 150.460938 61 C 150.808594 61 151.089844 61.28125 151.089844 61.628906 C 151.089844 61.976562 150.808594 62.257812 150.460938 62.257812 Z M 154.230469 62.257812 C 153.886719 62.257812 153.605469 61.976562 153.605469 61.628906 C 153.605469 61.28125 153.886719 61 154.230469 61 L 155.488281 61 C 155.835938 61 156.117188 61.28125 156.117188 61.628906 C 156.117188 61.976562 155.835938 62.257812 155.488281 62.257812 Z M 154.230469 62.257812 " fill-opacity="1" fill-rule="evenodd"/></g><g fill="#ffffff" fill-opacity="1"><g transform="translate(79.032733, 43.222841)"><g><path d="M 8.875 -15.421875 L 8.875 -13.421875 L 5.578125 -13.421875 L 5.578125 -4.421875 C 5.578125 -3.753906 5.675781 -3.253906 5.875 -2.921875 C 6.070312 -2.585938 6.328125 -2.363281 6.640625 -2.25 C 6.953125 -2.144531 7.28125 -2.09375 7.625 -2.09375 C 7.894531 -2.09375 8.113281 -2.101562 8.28125 -2.125 C 8.445312 -2.15625 8.578125 -2.179688 8.671875 -2.203125 L 9.15625 -0.078125 C 9 -0.015625 8.773438 0.046875 8.484375 0.109375 C 8.191406 0.171875 7.828125 0.203125 7.390625 0.203125 C 6.722656 0.203125 6.066406 0.0625 5.421875 -0.21875 C 4.785156 -0.507812 4.257812 -0.953125 3.84375 -1.546875 C 3.425781 -2.140625 3.21875 -2.882812 3.21875 -3.78125 L 3.21875 -13.421875 L 0.890625 -13.421875 L 0.890625 -15.421875 L 3.21875 -15.421875 L 3.21875 -19.125 L 5.578125 -19.125 L 5.578125 -15.421875 Z M 8.875 -15.421875 "/></g></g></g><g fill="#ffffff" fill-opacity="1"><g transform="translate(89.314545, 43.222841)"><g><path d="M 2.171875 0 L 2.171875 -15.421875 L 4.546875 -15.421875 L 4.546875 0 Z M 3.375 -18 C 2.914062 -18 2.519531 -18.15625 2.1875 -18.46875 C 1.851562 -18.78125 1.6875 -19.160156 1.6875 -19.609375 C 1.6875 -20.046875 1.851562 -20.421875 2.1875 -20.734375 C 2.519531 -21.054688 2.914062 -21.21875 3.375 -21.21875 C 3.832031 -21.21875 4.226562 -21.054688 4.5625 -20.734375 C 4.894531 -20.421875 5.0625 -20.046875 5.0625 -19.609375 C 5.0625 -19.160156 4.894531 -18.78125 4.5625 -18.46875 C 4.226562 -18.15625 3.832031 -18 3.375 -18 Z M 3.375 -18 "/></g></g></g><g fill="#ffffff" fill-opacity="1"><g transform="translate(96.021822, 43.222841)"><g><path d="M 2.171875 0 L 2.171875 -15.421875 L 4.453125 -15.421875 L 4.453125 -13.015625 L 4.65625 -13.015625 C 4.976562 -13.835938 5.5 -14.476562 6.21875 -14.9375 C 6.9375 -15.394531 7.796875 -15.625 8.796875 -15.625 C 9.816406 -15.625 10.664062 -15.394531 11.34375 -14.9375 C 12.019531 -14.476562 12.550781 -13.835938 12.9375 -13.015625 L 13.09375 -13.015625 C 13.488281 -13.816406 14.082031 -14.453125 14.875 -14.921875 C 15.664062 -15.390625 16.613281 -15.625 17.71875 -15.625 C 19.09375 -15.625 20.21875 -15.191406 21.09375 -14.328125 C 21.976562 -13.472656 22.421875 -12.140625 22.421875 -10.328125 L 22.421875 0 L 20.046875 0 L 20.046875 -10.328125 C 20.046875 -11.460938 19.734375 -12.273438 19.109375 -12.765625 C 18.484375 -13.253906 17.75 -13.5 16.90625 -13.5 C 15.820312 -13.5 14.984375 -13.171875 14.390625 -12.515625 C 13.796875 -11.867188 13.5 -11.046875 13.5 -10.046875 L 13.5 0 L 11.09375 0 L 11.09375 -10.5625 C 11.09375 -11.4375 10.804688 -12.144531 10.234375 -12.6875 C 9.660156 -13.226562 8.925781 -13.5 8.03125 -13.5 C 7.414062 -13.5 6.84375 -13.332031 6.3125 -13 C 5.78125 -12.675781 5.351562 -12.222656 5.03125 -11.640625 C 4.707031 -11.066406 4.546875 -10.398438 4.546875 -9.640625 L 4.546875 0 Z M 2.171875 0 "/></g></g></g><g fill="#ffffff" fill-opacity="1"><g transform="translate(120.60178, 43.222841)"><g><path d="M 8.640625 0.328125 C 7.148438 0.328125 5.867188 0 4.796875 -0.65625 C 3.722656 -1.320312 2.894531 -2.25 2.3125 -3.4375 C 1.738281 -4.625 1.453125 -6.007812 1.453125 -7.59375 C 1.453125 -9.175781 1.738281 -10.570312 2.3125 -11.78125 C 2.894531 -12.988281 3.707031 -13.929688 4.75 -14.609375 C 5.789062 -15.285156 7.003906 -15.625 8.390625 -15.625 C 9.191406 -15.625 9.984375 -15.488281 10.765625 -15.21875 C 11.554688 -14.957031 12.269531 -14.523438 12.90625 -13.921875 C 13.550781 -13.328125 14.066406 -12.535156 14.453125 -11.546875 C 14.835938 -10.566406 15.03125 -9.351562 15.03125 -7.90625 L 15.03125 -6.90625 L 3.828125 -6.90625 C 3.878906 -5.257812 4.34375 -4 5.21875 -3.125 C 6.101562 -2.25 7.242188 -1.8125 8.640625 -1.8125 C 9.566406 -1.8125 10.363281 -2.007812 11.03125 -2.40625 C 11.707031 -2.8125 12.195312 -3.414062 12.5 -4.21875 L 14.78125 -3.578125 C 14.414062 -2.410156 13.691406 -1.46875 12.609375 -0.75 C 11.523438 -0.03125 10.203125 0.328125 8.640625 0.328125 Z M 3.828125 -8.953125 L 12.609375 -8.953125 C 12.609375 -10.265625 12.226562 -11.347656 11.46875 -12.203125 C 10.707031 -13.066406 9.679688 -13.5 8.390625 -13.5 C 7.492188 -13.5 6.710938 -13.285156 6.046875 -12.859375 C 5.378906 -12.441406 4.851562 -11.882812 4.46875 -11.1875 C 4.09375 -10.5 3.878906 -9.753906 3.828125 -8.953125 Z M 3.828125 -8.953125 "/></g></g></g><g fill="#ffffff" fill-opacity="1"><g transform="translate(137.068745, 43.222841)"><g><path d="M 4.546875 -20.5625 L 4.546875 0 L 2.171875 0 L 2.171875 -20.5625 Z M 4.546875 -20.5625 "/></g></g></g><g fill="#ffffff" fill-opacity="1"><g transform="translate(143.776021, 43.222841)"><g><path d="M 3.609375 5.984375 C 3.210938 5.984375 2.851562 5.953125 2.53125 5.890625 C 2.21875 5.828125 2.003906 5.765625 1.890625 5.703125 L 2.484375 3.609375 C 3.347656 3.835938 4.070312 3.832031 4.65625 3.59375 C 5.238281 3.363281 5.734375 2.675781 6.140625 1.53125 L 6.671875 0.078125 L 0.96875 -15.421875 L 3.53125 -15.421875 L 7.796875 -3.140625 L 7.953125 -3.140625 L 12.21875 -15.421875 L 14.78125 -15.421875 L 8.15625 2.484375 C 7.28125 4.816406 5.765625 5.984375 3.609375 5.984375 Z M 3.609375 5.984375 "/></g></g></g><g fill="#ffffff" fill-opacity="1"><g transform="translate(33.73335, 65.745603)"><g><path d="M -1.328125 -4.578125 L 2.40625 -5.765625 L 2.703125 -4.828125 L 2.609375 -4.828125 C 2.441406 -5.347656 1.835938 -5.441406 0.796875 -5.109375 L 1.734375 -2.171875 C 1.941406 -1.523438 2.101562 -1.144531 2.21875 -1.03125 C 2.257812 -0.988281 2.316406 -0.957031 2.390625 -0.9375 C 2.472656 -0.925781 2.550781 -0.925781 2.625 -0.9375 C 2.695312 -0.945312 2.800781 -0.972656 2.9375 -1.015625 L 2.984375 -0.953125 L 0.96875 -0.3125 L 0.953125 -0.390625 C 1.078125 -0.429688 1.179688 -0.46875 1.265625 -0.5 C 1.347656 -0.539062 1.410156 -0.585938 1.453125 -0.640625 C 1.492188 -0.691406 1.519531 -0.75 1.53125 -0.8125 C 1.550781 -0.875 1.554688 -0.96875 1.546875 -1.09375 C 1.515625 -1.25 1.425781 -1.554688 1.28125 -2.015625 L 0.34375 -4.953125 C -0.707031 -4.628906 -1.148438 -4.207031 -0.984375 -3.6875 L -1.03125 -3.640625 Z M -1.328125 -4.578125 "/></g></g></g><g fill="#ffffff" fill-opacity="1"><g transform="translate(39.607744, 63.694836)"><g><path d="M 0.015625 -3.5625 L 0.71875 -2.03125 C 0.914062 -1.582031 1.066406 -1.285156 1.171875 -1.140625 C 1.273438 -0.992188 1.359375 -0.914062 1.421875 -0.90625 C 1.554688 -0.863281 1.726562 -0.890625 1.9375 -0.984375 L 1.984375 -0.90625 L 0.3125 -0.140625 L 0.296875 -0.234375 C 0.398438 -0.273438 0.476562 -0.3125 0.53125 -0.34375 C 0.582031 -0.375 0.625 -0.421875 0.65625 -0.484375 C 0.695312 -0.554688 0.710938 -0.617188 0.703125 -0.671875 C 0.703125 -0.722656 0.6875 -0.8125 0.65625 -0.9375 C 0.601562 -1.082031 0.476562 -1.378906 0.28125 -1.828125 L -0.421875 -3.359375 C -0.617188 -3.785156 -0.765625 -4.078125 -0.859375 -4.234375 C -0.960938 -4.398438 -1.050781 -4.488281 -1.125 -4.5 C -1.257812 -4.53125 -1.425781 -4.503906 -1.625 -4.421875 L -1.671875 -4.46875 L 0 -5.234375 L 0.015625 -5.171875 C -0.191406 -5.078125 -0.328125 -4.96875 -0.390625 -4.84375 C -0.453125 -4.707031 -0.316406 -4.28125 0.015625 -3.5625 Z M 0.015625 -3.5625 "/></g></g></g><g fill="#ffffff" fill-opacity="1"><g transform="translate(43.85337, 61.740555)"><g><path d="M 2.90625 -5.78125 L 3.84375 -4.375 C 4.101562 -3.957031 4.296875 -3.6875 4.421875 -3.5625 C 4.546875 -3.4375 4.640625 -3.367188 4.703125 -3.359375 C 4.835938 -3.335938 5.003906 -3.390625 5.203125 -3.515625 L 5.265625 -3.46875 L 3.734375 -2.453125 L 3.703125 -2.53125 C 3.878906 -2.644531 3.992188 -2.769531 4.046875 -2.90625 C 4.078125 -3.019531 3.992188 -3.234375 3.796875 -3.546875 C 3.734375 -3.671875 3.617188 -3.863281 3.453125 -4.125 L 1.859375 -6.515625 L 2.671875 -1.828125 L -1 -3.828125 L 0.21875 -2 C 0.457031 -1.625 0.648438 -1.359375 0.796875 -1.203125 C 0.941406 -1.054688 1.066406 -0.984375 1.171875 -0.984375 C 1.285156 -0.984375 1.441406 -1.046875 1.640625 -1.171875 L 1.6875 -1.109375 L 0.28125 -0.1875 L 0.25 -0.265625 C 0.394531 -0.347656 0.492188 -0.421875 0.546875 -0.484375 C 0.609375 -0.554688 0.632812 -0.65625 0.625 -0.78125 C 0.613281 -0.914062 0.5625 -1.0625 0.46875 -1.21875 C 0.382812 -1.375 0.25 -1.597656 0.0625 -1.890625 L -0.859375 -3.28125 C -1.054688 -3.570312 -1.207031 -3.789062 -1.3125 -3.9375 C -1.425781 -4.09375 -1.539062 -4.195312 -1.65625 -4.25 C -1.769531 -4.300781 -1.863281 -4.3125 -1.9375 -4.28125 C -2.019531 -4.257812 -2.132812 -4.207031 -2.28125 -4.125 L -2.34375 -4.171875 L -1.5625 -4.6875 L 2.375 -2.515625 L 1.640625 -6.796875 L 2.640625 -7.453125 L 2.671875 -7.375 C 2.472656 -7.25 2.351562 -7.117188 2.3125 -6.984375 C 2.269531 -6.835938 2.46875 -6.4375 2.90625 -5.78125 Z M 2.90625 -5.78125 "/></g></g></g><g fill="#ffffff" fill-opacity="1"><g transform="translate(51.048343, 56.656413)"><g><path d="M 2.75 -2.59375 L 0.25 -0.234375 L 0.21875 -0.3125 C 0.375 -0.457031 0.457031 -0.601562 0.46875 -0.75 C 0.476562 -0.882812 0.210938 -1.238281 -0.328125 -1.8125 L -1.484375 -3.046875 C -1.804688 -3.390625 -2.035156 -3.617188 -2.171875 -3.734375 C -2.316406 -3.859375 -2.425781 -3.921875 -2.5 -3.921875 C -2.632812 -3.898438 -2.78125 -3.816406 -2.9375 -3.671875 L -3.015625 -3.703125 L -0.703125 -5.875 L -0.03125 -5.15625 L -0.09375 -5.125 C -0.3125 -5.351562 -0.570312 -5.398438 -0.875 -5.265625 C -1.1875 -5.128906 -1.585938 -4.832031 -2.078125 -4.375 L -0.609375 -2.8125 C -0.285156 -3.113281 -0.0703125 -3.347656 0.03125 -3.515625 C 0.144531 -3.679688 0.1875 -3.8125 0.15625 -3.90625 C 0.132812 -4.007812 0.0507812 -4.140625 -0.09375 -4.296875 L -0.046875 -4.359375 L 1.09375 -3.15625 L 1.015625 -3.125 C 0.859375 -3.289062 0.726562 -3.382812 0.625 -3.40625 C 0.53125 -3.4375 0.398438 -3.398438 0.234375 -3.296875 C 0.0664062 -3.203125 -0.175781 -3.003906 -0.5 -2.703125 L 0.09375 -2.0625 C 0.425781 -1.71875 0.660156 -1.5 0.796875 -1.40625 C 0.929688 -1.3125 1.054688 -1.28125 1.171875 -1.3125 C 2.109375 -2.195312 2.394531 -2.835938 2.03125 -3.234375 L 2.078125 -3.3125 Z M 2.75 -2.59375 "/></g></g></g><g fill="#ffffff" fill-opacity="1"><g transform="translate(55.541866, 52.216074)"><g><path d="M 2.265625 -2.8125 L 0.21875 -0.265625 L 0.15625 -0.328125 C 0.226562 -0.410156 0.28125 -0.476562 0.3125 -0.53125 C 0.351562 -0.59375 0.375 -0.65625 0.375 -0.71875 C 0.375 -0.789062 0.359375 -0.851562 0.328125 -0.90625 C 0.304688 -0.957031 0.253906 -1.03125 0.171875 -1.125 C 0.0664062 -1.25 -0.175781 -1.460938 -0.5625 -1.765625 L -1.875 -2.828125 C -2.40625 -3.253906 -2.75 -3.488281 -2.90625 -3.53125 C -3.03125 -3.5625 -3.148438 -3.523438 -3.265625 -3.421875 C -3.304688 -3.367188 -3.363281 -3.300781 -3.4375 -3.21875 L -3.484375 -3.25 L -2.328125 -4.6875 L -2.296875 -4.625 C -2.441406 -4.445312 -2.507812 -4.289062 -2.5 -4.15625 C -2.5 -4.019531 -2.191406 -3.703125 -1.578125 -3.203125 L -0.1875 -2.078125 C 0.195312 -1.765625 0.460938 -1.566406 0.609375 -1.484375 C 0.753906 -1.410156 0.882812 -1.40625 1 -1.46875 C 1.738281 -2.382812 1.894531 -3.015625 1.46875 -3.359375 L 1.5 -3.4375 Z M 2.265625 -2.8125 "/></g></g></g><g fill="#ffffff" fill-opacity="1"><g transform="translate(59.162481, 47.542955)"><g><path d="M 0.09375 -3.1875 C 0.675781 -2.84375 1.046875 -2.664062 1.203125 -2.65625 C 1.265625 -2.664062 1.328125 -2.6875 1.390625 -2.71875 C 1.460938 -2.757812 1.523438 -2.8125 1.578125 -2.875 C 1.628906 -2.9375 1.691406 -3.023438 1.765625 -3.140625 L 1.828125 -3.109375 L 0.765625 -1.296875 L 0.703125 -1.359375 C 0.773438 -1.472656 0.828125 -1.566406 0.859375 -1.640625 C 0.890625 -1.722656 0.898438 -1.800781 0.890625 -1.875 C 0.890625 -1.945312 0.875 -2.007812 0.84375 -2.0625 C 0.8125 -2.113281 0.75 -2.179688 0.65625 -2.265625 C 0.53125 -2.359375 0.257812 -2.53125 -0.15625 -2.78125 L -0.53125 -3 L -2.015625 -2.984375 C -2.429688 -2.984375 -2.738281 -2.976562 -2.9375 -2.96875 C -3.132812 -2.96875 -3.304688 -2.945312 -3.453125 -2.90625 C -3.609375 -2.875 -3.710938 -2.832031 -3.765625 -2.78125 C -3.828125 -2.726562 -3.890625 -2.640625 -3.953125 -2.515625 L -4.03125 -2.5625 L -3.171875 -4.03125 L -3.109375 -3.96875 C -3.179688 -3.84375 -3.222656 -3.742188 -3.234375 -3.671875 C -3.242188 -3.609375 -3.21875 -3.5625 -3.15625 -3.53125 C -3.082031 -3.488281 -2.988281 -3.460938 -2.875 -3.453125 C -2.757812 -3.453125 -2.679688 -3.445312 -2.640625 -3.4375 C -2.597656 -3.4375 -2.535156 -3.4375 -2.453125 -3.4375 C -2.378906 -3.4375 -2.3125 -3.441406 -2.25 -3.453125 C -2 -3.441406 -1.832031 -3.441406 -1.75 -3.453125 L -0.546875 -3.4375 L -1.171875 -4.4375 C -1.566406 -5.019531 -1.832031 -5.351562 -1.96875 -5.4375 C -2.050781 -5.488281 -2.125 -5.488281 -2.1875 -5.4375 C -2.25 -5.394531 -2.320312 -5.300781 -2.40625 -5.15625 L -2.484375 -5.203125 L -1.703125 -6.5 L -1.640625 -6.453125 C -1.753906 -6.265625 -1.816406 -6.09375 -1.828125 -5.9375 C -1.828125 -5.8125 -1.71875 -5.566406 -1.5 -5.203125 C -1.414062 -5.066406 -1.273438 -4.859375 -1.078125 -4.578125 L -0.34375 -3.4375 Z M 0.09375 -3.1875 "/></g></g></g><g fill="#ffffff" fill-opacity="1"><g transform="translate(20.291095, 45.605789)"><g><path d="M 0.671875 0 L 0.671875 -0.3125 L 2.046875 -0.3125 C 2.597656 -0.3125 2.992188 -0.441406 3.234375 -0.703125 C 3.484375 -0.972656 3.609375 -1.503906 3.609375 -2.296875 L 3.609375 -19.578125 C 3.609375 -20.359375 3.492188 -20.882812 3.265625 -21.15625 C 3.046875 -21.4375 2.742188 -21.578125 2.359375 -21.578125 L 0.671875 -21.578125 L 0.671875 -21.875 L 7.390625 -21.875 L 12.046875 -3.3125 L 16.734375 -21.875 L 23.140625 -21.875 L 23.140625 -21.578125 L 22 -21.578125 C 21.65625 -21.578125 21.378906 -21.441406 21.171875 -21.171875 C 20.960938 -20.910156 20.859375 -20.410156 20.859375 -19.671875 L 20.859375 -2.203125 C 20.859375 -1.472656 20.957031 -0.972656 21.15625 -0.703125 C 21.351562 -0.441406 21.707031 -0.3125 22.21875 -0.3125 L 23.140625 -0.3125 L 23.140625 0 L 14.890625 0 L 14.890625 -0.3125 L 15.3125 -0.3125 C 15.90625 -0.3125 16.304688 -0.453125 16.515625 -0.734375 C 16.722656 -1.023438 16.828125 -1.597656 16.828125 -2.453125 L 16.828125 -20.953125 L 11.578125 0 L 9.3125 0 L 3.921875 -20.59375 L 3.921875 -2.421875 C 3.921875 -1.484375 4.070312 -0.894531 4.375 -0.65625 C 4.6875 -0.425781 5.160156 -0.3125 5.796875 -0.3125 L 6.984375 -0.3125 L 6.984375 0 Z M 0.671875 0 "/></g></g></g><g clip-path="url(#e34ed2e46e)"><g clip-path="url(#59cebb8445)"><g clip-path="url(#ac12087543)"><g clip-path="url(#3fb25c597c)"><path fill="#ffffff" d="M 8.648438 52.457031 C -1.179688 39.789062 1.136719 21.46875 13.820312 11.632812 C 26.503906 1.792969 44.808594 4.121094 54.636719 16.789062 C 64.460938 29.457031 62.144531 47.777344 49.476562 57.601562 C 36.804688 67.457031 18.484375 65.140625 8.648438 52.457031 Z M 54.246094 17.089844 C 44.578125 4.625 26.589844 2.351562 14.121094 12.019531 C 1.65625 21.6875 -0.621094 39.707031 9.035156 52.15625 C 18.691406 64.605469 36.722656 66.898438 49.1875 57.230469 C 61.652344 47.5625 63.914062 29.554688 54.246094 17.089844 Z M 54.246094 17.089844 " fill-opacity="1" fill-rule="nonzero"/></g></g></g></g></svg>