<?xml version="1.0" standalone="no"?>
<!DOCTYPE svg PUBLIC "-//W3C//DTD SVG 20010904//EN"
 "http://www.w3.org/TR/2001/REC-SVG-20010904/DTD/svg10.dtd">
<svg version="1.0" xmlns="http://www.w3.org/2000/svg"
 width="700.000000pt" height="700.000000pt" viewBox="0 0 700.000000 700.000000"
 preserveAspectRatio="xMidYMid meet">
<metadata>
Created by potrace 1.14, written by Peter Selinger 2001-2017
</metadata>
<g transform="translate(0.000000,700.000000) scale(0.100000,-0.100000)"
fill="#000000" stroke="none">
<path d="M1230 5726 l0 -31 203 -1 c185 0 205 -2 242 -21 73 -38 116 -98 129
-178 2 -17 8 -50 11 -74 9 -55 10 -3714 2 -3756 -4 -16 -9 -45 -12 -63 -9 -53
-45 -121 -79 -147 -64 -49 -106 -57 -316 -61 -91 -1 -168 -3 -172 -3 -5 -1 -8
-14 -8 -31 l0 -30 640 0 640 0 -4 26 c-3 15 -8 29 -10 32 -3 3 -77 6 -163 7
-325 3 -397 47 -439 265 -9 43 -11 3790 -3 3796 3 2 16 -36 27 -84 12 -48 40
-157 63 -242 22 -85 58 -220 79 -300 90 -347 172 -659 195 -745 9 -33 18 -67
20 -76 2 -9 30 -120 64 -245 88 -336 170 -649 260 -999 45 -170 90 -341 101
-380 18 -67 53 -198 146 -559 24 -93 60 -229 80 -303 19 -74 37 -144 40 -156
2 -11 7 -24 12 -29 5 -5 109 -7 233 -6 l224 3 158 630 c87 347 160 639 162
650 3 11 39 155 81 320 41 165 77 309 80 320 2 11 63 254 135 540 72 286 133
530 135 543 3 13 22 91 44 175 21 84 41 163 44 177 11 53 213 850 217 854 6 6
2 -3842 -4 -3874 -2 -14 -7 -45 -12 -70 -9 -57 -38 -120 -64 -142 -50 -42
-132 -65 -234 -64 -68 1 -78 -4 -73 -40 3 -18 33 -19 834 -22 l832 -2 0 32 0
33 -128 1 c-70 0 -146 6 -169 13 -84 23 -124 78 -147 200 -19 99 -16 3820 3
3898 18 74 62 138 113 165 38 20 58 22 183 23 l140 1 3 31 3 31 -647 -2 -648
-1 -49 -190 c-26 -104 -50 -197 -52 -205 -2 -8 -69 -276 -150 -595 -191 -758
-308 -1220 -461 -1825 -69 -272 -127 -502 -129 -510 -13 -61 -97 -389 -103
-403 -4 -11 -98 346 -252 960 -134 538 -245 983 -246 988 -2 6 -35 136 -74
290 -39 154 -73 287 -75 295 -2 8 -11 47 -20 85 -9 39 -20 84 -26 100 -7 24
-44 171 -94 375 -8 35 -128 511 -143 570 l-17 65 -677 1 -678 2 0 -32z"/>
</g>
</svg>
